<svg width="300" height="259" viewBox="0 0 300 259" fill="none" xmlns="http://www.w3.org/2000/svg">
  <g clip-path="url(#clip0_417_5171)">
    <path d="M0 255.921C0 256.298 0.303066 256.601 0.680461 256.601H299.32C299.697 256.601 300 256.298 300 255.921C300 255.544 299.697 255.24 299.32 255.24H0.680461C0.303062 255.24 0 255.544 0 255.921Z" fill="#E6E6E6"/>
    <path d="M97.4377 27.4763L100.685 42.2958L93.7776 62.923L82.6484 40.7607L84.1926 27.9034L97.4377 27.4763Z" fill="#FDB4B4"/>
    <path d="M101.288 41.5281H82.0723V64.7457H101.288V41.5281Z" fill="#0891B2"/>
    <path d="M93.3867 34.941C100.634 34.941 106.51 29.0656 106.51 21.8179C106.51 14.5702 100.634 8.69482 93.3867 8.69482C86.1391 8.69482 80.2637 14.5702 80.2637 21.8179C80.2637 29.0656 86.1391 34.941 93.3867 34.941Z" fill="#FDB4B4"/>
    <path d="M81.9638 31.5763C81.9638 31.5763 72.1818 13.5106 81.0014 4.81697C89.821 -3.87669 96.9009 1.85189 96.9009 1.85189L100.944 1.6885C100.944 1.6885 101.787 4.8702 103.147 3.14781C104.506 1.42542 106.963 7.69815 106.963 7.69815C111.523 15.9106 95.7152 17.7504 95.7152 17.7504C95.7152 17.7504 96.8567 21.3866 95.6964 22.1481C94.5362 22.9096 91.4362 25.7743 91.4362 25.7743L88.6614 27.8699L87.0125 25.3576C87.0125 25.3576 85.2901 23.9979 84.4199 24.5691C83.5497 25.1402 84.7467 32.6549 84.7467 32.6549L81.9638 31.5763Z" fill="#2E2E41"/>
    <path d="M66.2204 164.482L61.2031 239.324L73.5373 239.742L89.8435 165.11L66.2204 164.482Z" fill="#2E2E41"/>
    <path d="M96.1149 164.064L91.0977 238.905L103.432 239.324L119.738 164.691L96.1149 164.064Z" fill="#2E2E41"/>
    <path d="M63.1991 181.581L69.7652 100.069L59.6958 57.6231C58.8277 51.3136 62.8033 45.3434 68.939 43.7155L78.792 41.1015L83.153 36.7402L93.0725 58.6456L99.2676 36.7569L104.099 40.2708L118.429 46.5928L118.422 46.7409L116.124 98.0148L121.255 180.856L121.027 180.859L63.1991 181.581Z" fill="#E8E9EA"/>
    <path d="M102.64 238.473L106.211 249.135C106.211 249.135 120.183 251.034 120.401 255.36C120.618 259.686 101.412 257.182 90.1655 257.747C78.9191 258.312 88.2809 246.133 88.2809 246.133L89.4793 239.135L102.64 238.473Z" fill="#2E2E41"/>
    <path d="M73.4739 237.706L77.0453 248.367C77.0453 248.367 91.0174 250.267 91.2348 254.593C91.4522 258.918 72.2459 256.414 60.9995 256.98C49.7531 257.545 59.1149 245.366 59.1149 245.366L60.3133 238.367L73.4739 237.706Z" fill="#2E2E41"/>
    <path d="M56.0502 138.291C55.8987 136.189 56.253 134.081 57.0834 132.144L54.418 110.278L64.8593 109.314L66.4386 131.598C67.4879 133.425 68.0844 135.477 68.1782 137.582C68.4853 142.847 66.0192 147.271 62.6698 147.467C59.3203 147.662 56.3564 143.554 56.0502 138.291Z" fill="#FDB4B4"/>
    <path d="M122.182 141.5C122.054 139.397 122.431 137.293 123.282 135.365L120.855 113.472L131.307 112.622L132.643 134.921C133.672 136.76 134.246 138.818 134.317 140.923C134.567 146.191 132.053 150.589 128.701 150.748C125.35 150.907 122.431 146.767 122.182 141.5Z" fill="#FDB4B4"/>
    <path d="M54.3744 129.522L54.3391 129.334L48.8975 100.136L55.3273 52.5917C55.9011 48.347 59.6913 45.2893 63.9655 45.631C66.1976 45.8097 68.2002 46.8684 69.6051 48.6124C71.0097 50.3564 71.6174 52.5389 71.3163 54.7579L66.4769 90.4157L69.5238 128.555L54.3744 129.522Z" fill="#E8E9EA"/>
    <path d="M118.958 128.837L108.017 55.8071C107.448 53.6657 107.781 51.4248 108.959 49.5204C110.137 47.6161 111.993 46.3176 114.186 45.864C118.382 44.9963 122.524 47.5609 123.62 51.7016L134.13 127.92L118.958 128.837Z" fill="#E8E9EA"/>
    <path d="M93.3939 65.3216C94.1358 65.3216 94.7371 64.7202 94.7371 63.9784C94.7371 63.2366 94.1358 62.6353 93.3939 62.6353C92.6521 62.6353 92.0508 63.2366 92.0508 63.9784C92.0508 64.7202 92.6521 65.3216 93.3939 65.3216Z" fill="#D6D7D8"/>
    <path d="M93.3939 75.4913C94.1358 75.4913 94.7371 74.8899 94.7371 74.1481C94.7371 73.4063 94.1358 72.8049 93.3939 72.8049C92.6521 72.8049 92.0508 73.4063 92.0508 74.1481C92.0508 74.8899 92.6521 75.4913 93.3939 75.4913Z" fill="#D6D7D8"/>
    <path d="M93.3939 85.6609C94.1358 85.6609 94.7371 85.0596 94.7371 84.3178C94.7371 83.576 94.1358 82.9746 93.3939 82.9746C92.6521 82.9746 92.0508 83.576 92.0508 84.3178C92.0508 85.0596 92.6521 85.6609 93.3939 85.6609Z" fill="#D6D7D8"/>
    <path d="M93.3939 95.8306C94.1358 95.8306 94.7371 95.2293 94.7371 94.4875C94.7371 93.7456 94.1358 93.1443 93.3939 93.1443C92.6521 93.1443 92.0508 93.7456 92.0508 94.4875C92.0508 95.2293 92.6521 95.8306 93.3939 95.8306Z" fill="#D6D7D8"/>
    <path d="M93.3939 106C94.1358 106 94.7371 105.399 94.7371 104.657C94.7371 103.915 94.1358 103.314 93.3939 103.314C92.6521 103.314 92.0508 103.915 92.0508 104.657C92.0508 105.399 92.6521 106 93.3939 106Z" fill="#D6D7D8"/>
    <path d="M93.3939 116.17C94.1358 116.17 94.7371 115.569 94.7371 114.827C94.7371 114.085 94.1358 113.484 93.3939 113.484C92.6521 113.484 92.0508 114.085 92.0508 114.827C92.0508 115.569 92.6521 116.17 93.3939 116.17Z" fill="#D6D7D8"/>
    <path d="M93.3939 126.34C94.1358 126.34 94.7371 125.739 94.7371 124.997C94.7371 124.255 94.1358 123.654 93.3939 123.654C92.6521 123.654 92.0508 124.255 92.0508 124.997C92.0508 125.739 92.6521 126.34 93.3939 126.34Z" fill="#D6D7D8"/>
    <path d="M93.3939 136.51C94.1358 136.51 94.7371 135.908 94.7371 135.166C94.7371 134.425 94.1358 133.823 93.3939 133.823C92.6521 133.823 92.0508 134.425 92.0508 135.166C92.0508 135.908 92.6521 136.51 93.3939 136.51Z" fill="#D6D7D8"/>
    <path d="M93.3952 144.376L67.9808 140.99L67.4914 140.925L54.5028 110.976L46.7676 93.145H66.9154L93.3952 144.376Z" fill="#0891B2"/>
    <path d="M195.293 30.7345L211.451 21.8828V47.1733H192.764L195.293 30.7345Z" fill="#2E2E41"/>
    <path d="M214.914 36.3729L216.405 48.789L205.658 70.1909L198.987 50.2714L202.123 35.9604L214.914 36.3729Z" fill="#FDB4B4"/>
    <path d="M216.962 49.5303H198.405V71.9513H216.962V49.5303Z" fill="#0891B2"/>
    <path d="M232.27 168.265L237.115 240.539L225.204 240.942L209.457 168.871L232.27 168.265Z" fill="#2E2E41"/>
    <path d="M203.4 167.862L208.246 240.135L196.335 240.539L180.588 168.467L203.4 167.862Z" fill="#2E2E41"/>
    <path d="M244.854 183.594L244.57 183.593L168.691 183.345L168.76 183.077L188.268 105.785L183.381 66.7789C182.455 59.3877 186.412 52.4014 193.227 49.3949L195.687 48.3096L200.361 44.9105L206.34 66.0388L215.915 44.894L220.133 49.1115L229.646 51.6354C235.575 53.2084 239.417 58.9772 238.581 65.0541L238.571 65.0964L224.044 106.548L244.854 183.594Z" fill="#E8E9EA"/>
    <path d="M197.1 239.717L209.809 240.356L210.966 247.114C210.966 247.114 220.006 258.876 209.146 258.33C198.285 257.784 179.738 260.202 179.948 256.025C180.158 251.848 193.651 250.013 193.651 250.013L197.1 239.717Z" fill="#2E2E41"/>
    <path d="M225.265 238.976L237.974 239.615L239.131 246.373C239.131 246.373 248.171 258.134 237.311 257.589C226.45 257.043 207.903 259.461 208.113 255.283C208.323 251.106 221.816 249.272 221.816 249.272L225.265 238.976Z" fill="#2E2E41"/>
    <path d="M236.903 142.232C236.607 147.314 233.745 151.281 230.51 151.093C227.276 150.904 224.894 146.631 225.191 141.547C225.282 139.514 225.858 137.533 226.871 135.768L228.396 114.249L238.479 115.18L235.905 136.295C236.707 138.166 237.049 140.202 236.903 142.232Z" fill="#FDB4B4"/>
    <path d="M185.088 140.299C184.684 145.374 181.738 149.279 178.508 149.022C175.278 148.764 172.988 144.442 173.393 139.365C173.527 137.335 174.145 135.366 175.196 133.624L177.178 112.142L187.239 113.287L184.216 134.343C184.978 136.23 185.277 138.272 185.088 140.299Z" fill="#FDB4B4"/>
    <path d="M238.527 133.771L223.883 132.837L223.901 132.617L226.826 95.999L222.153 61.5656C221.862 59.4208 222.449 57.3112 223.807 55.6255C225.164 53.9396 227.1 52.9163 229.258 52.7435C233.39 52.4179 237.053 55.369 237.608 59.4718L243.817 105.386L243.811 105.42L238.527 133.771Z" fill="#E8E9EA"/>
    <path d="M187.525 132.369L172.858 131.482L172.891 131.25L183.005 57.8962C184.068 53.8674 188.074 51.3893 192.128 52.2276C194.248 52.666 196.042 53.9211 197.181 55.762C198.319 57.6029 198.641 59.7688 198.086 61.8611L187.525 132.369Z" fill="#E8E9EA"/>
    <path d="M206.029 72.507C206.745 72.507 207.326 71.9263 207.326 71.2099C207.326 70.4936 206.745 69.9128 206.029 69.9128C205.312 69.9128 204.731 70.4936 204.731 71.2099C204.731 71.9263 205.312 72.507 206.029 72.507Z" fill="#D6D7D8"/>
    <path d="M206.029 82.3278C206.745 82.3278 207.326 81.7471 207.326 81.0307C207.326 80.3144 206.745 79.7336 206.029 79.7336C205.312 79.7336 204.731 80.3144 204.731 81.0307C204.731 81.7471 205.312 82.3278 206.029 82.3278Z" fill="#D6D7D8"/>
    <path d="M206.029 92.1486C206.745 92.1486 207.326 91.5679 207.326 90.8515C207.326 90.1352 206.745 89.5544 206.029 89.5544C205.312 89.5544 204.731 90.1352 204.731 90.8515C204.731 91.5679 205.312 92.1486 206.029 92.1486Z" fill="#D6D7D8"/>
    <path d="M206.029 101.969C206.745 101.969 207.326 101.389 207.326 100.672C207.326 99.956 206.745 99.3752 206.029 99.3752C205.312 99.3752 204.731 99.956 204.731 100.672C204.731 101.389 205.312 101.969 206.029 101.969Z" fill="#D6D7D8"/>
    <path d="M206.029 111.79C206.745 111.79 207.326 111.209 207.326 110.493C207.326 109.777 206.745 109.196 206.029 109.196C205.312 109.196 204.731 109.777 204.731 110.493C204.731 111.209 205.312 111.79 206.029 111.79Z" fill="#D6D7D8"/>
    <path d="M206.029 121.611C206.745 121.611 207.326 121.03 207.326 120.314C207.326 119.597 206.745 119.017 206.029 119.017C205.312 119.017 204.731 119.597 204.731 120.314C204.731 121.03 205.312 121.611 206.029 121.611Z" fill="#D6D7D8"/>
    <path d="M206.029 131.432C206.745 131.432 207.326 130.851 207.326 130.134C207.326 129.418 206.745 128.837 206.029 128.837C205.312 128.837 204.731 129.418 204.731 130.134C204.731 130.851 205.312 131.432 206.029 131.432Z" fill="#D6D7D8"/>
    <path d="M206.029 141.252C206.745 141.252 207.326 140.672 207.326 139.955C207.326 139.239 206.745 138.658 206.029 138.658C205.312 138.658 204.731 139.239 204.731 139.955C204.731 140.672 205.312 141.252 206.029 141.252Z" fill="#D6D7D8"/>
    <path d="M207.997 42.7096C214.698 42.7096 220.13 37.2778 220.13 30.5773C220.13 23.8769 214.698 18.4451 207.997 18.4451C201.297 18.4451 195.865 23.8769 195.865 30.5773C195.865 37.2778 201.297 42.7096 207.997 42.7096Z" fill="#FDB4B4"/>
    <path d="M214.356 16.4144C214.937 17.5968 214.015 19.0737 212.795 19.5708C211.575 20.0679 210.196 19.8665 208.895 19.6596C207.594 19.4527 206.214 19.2565 204.997 19.7624C203.423 20.417 202.536 22.059 201.771 23.5827C200.344 26.4273 198.916 29.2719 197.489 32.1165C196.791 33.5063 196.078 34.9586 196.065 36.5135C196.04 39.3677 198.304 41.6486 199.522 44.2298C201.006 47.3726 200.883 51.2241 199.204 54.2665C197.524 57.3088 194.33 59.4644 190.88 59.8837C189.972 59.994 189.012 59.9821 188.196 59.5697C187.38 59.1573 186.757 58.2568 186.908 57.355C187.203 55.5913 189.899 55.1791 190.393 53.4606C190.652 52.5635 190.194 51.6055 189.577 50.9048C188.96 50.2041 188.18 49.6575 187.592 48.9327C186.235 47.2614 186.145 44.6815 187.381 42.9194C188.108 41.8838 189.232 41.1144 189.702 39.9397C190.102 38.9384 189.956 37.8129 189.805 36.7453C189.61 35.3734 189.415 34.0015 189.22 32.6296C188.993 31.0291 188.769 29.3711 189.218 27.8181C190.248 24.2593 194.266 22.5879 196.623 19.7293C197.718 18.4009 198.455 16.8034 199.578 15.4989C201.463 13.3098 204.431 12.1022 207.309 12.3533C210.187 12.6043 212.902 14.3075 214.38 16.7899" fill="#2E2E41"/>
    <path d="M212.44 16.6389C211.848 16.8509 211.628 17.6229 211.798 18.2288C211.969 18.8348 212.416 19.3162 212.825 19.7948C217.45 25.2075 218.525 33.3947 215.454 39.818C214.637 41.5265 213.549 43.1344 213.108 44.9762C212.788 46.3163 212.805 47.7863 212.061 48.9465C211.305 50.1276 209.805 50.919 209.656 52.314C209.561 53.2092 210.107 54.0788 210.838 54.6037C211.57 55.1285 212.463 55.3686 213.342 55.5645C215.626 56.0734 217.961 56.3512 220.301 56.3924C221.063 56.4058 221.85 56.3893 222.55 56.0854C223.25 55.7814 223.847 55.1223 223.855 54.3595C223.861 53.76 223.516 53.2069 223.471 52.609C223.339 50.8173 225.75 49.8642 226.22 48.1301C226.529 46.9901 225.92 45.8169 225.272 44.8296C224.624 43.8422 223.884 42.8053 223.9 41.6243C223.916 40.4937 224.625 39.498 224.901 38.4014C225.282 36.8847 224.814 35.2981 224.349 33.8048C223.954 32.5352 223.559 31.2655 223.164 29.9959C222.744 28.6463 222.324 27.2966 221.903 25.947C221.17 23.5908 220.4 21.1663 218.814 19.2765C217.227 17.3867 214.597 16.1481 212.253 16.9197" fill="#2E2E41"/>
    <path d="M220.708 63.6515L219.877 63.4092C221.609 57.4691 217.874 46.384 217.836 46.2727L218.656 45.9932C218.814 46.4582 222.517 57.4513 220.708 63.6515Z" fill="#3F3C57"/>
    <path d="M220.292 70.4744C222.29 70.4744 223.91 68.8545 223.91 66.8562C223.91 64.8579 222.29 63.238 220.292 63.238C218.294 63.238 216.674 64.8579 216.674 66.8562C216.674 68.8545 218.294 70.4744 220.292 70.4744Z" fill="#3F3C57"/>
    <path d="M196.519 79.6656H194.325C194.085 79.6656 193.891 79.4717 193.891 79.2325C193.891 78.9933 194.085 78.7994 194.325 78.7994H196.519C197.124 78.7994 197.692 78.5638 198.119 78.1358C198.546 77.708 198.78 77.1393 198.779 76.5349L198.752 63.0194C198.752 60.0833 196.364 57.6953 193.429 57.6953C190.494 57.6953 188.105 60.0833 188.105 63.0185L188.132 75.6692C188.135 76.9033 189.141 77.915 190.375 77.9245L191.881 77.936C192.12 77.9379 192.313 78.1331 192.311 78.3724C192.309 78.6104 192.115 78.8022 191.878 78.8022H191.874L190.368 78.7907C188.661 78.7776 187.269 77.3779 187.266 75.6709L187.239 63.0194C187.239 59.6058 190.016 56.8291 193.429 56.8291C196.842 56.8291 199.619 59.6058 199.619 63.0185L199.645 76.5333C199.647 77.3694 199.322 78.1559 198.732 78.7476C198.141 79.3395 197.355 79.6656 196.519 79.6656Z" fill="#3F3C57"/>
    <path d="M191.878 79.9041C192.726 79.9041 193.413 79.2168 193.413 78.369C193.413 77.5213 192.726 76.834 191.878 76.834C191.03 76.834 190.343 77.5213 190.343 78.369C190.343 79.2168 191.03 79.9041 191.878 79.9041Z" fill="#3F3C57"/>
    <path d="M194.324 80.7676C195.172 80.7676 195.859 80.0804 195.859 79.2326C195.859 78.3848 195.172 77.6975 194.324 77.6975C193.476 77.6975 192.789 78.3848 192.789 79.2326C192.789 80.0804 193.476 80.7676 194.324 80.7676Z" fill="#3F3C57"/>
    <path d="M105.707 57.1596L104.876 56.9173C106.608 50.9771 102.915 39.7204 102.877 39.6091L103.916 40.3927C104.075 40.8577 107.516 50.9594 105.707 57.1596Z" fill="#3F3C57"/>
    <path d="M76.4772 58.215L77.3087 57.9726C75.5763 52.0325 79.3118 40.9474 79.3494 40.8362L78.4599 41.432C78.3013 41.897 74.6686 52.0147 76.4772 58.215Z" fill="#3F3C57"/>
    <path d="M105.292 63.9824C107.29 63.9824 108.91 62.3625 108.91 60.3642C108.91 58.366 107.29 56.7461 105.292 56.7461C103.294 56.7461 101.674 58.366 101.674 60.3642C101.674 62.3625 103.294 63.9824 105.292 63.9824Z" fill="#3F3C57"/>
    <path d="M80.3352 80.4652H78.1409C77.9015 80.4652 77.7078 80.2713 77.7078 80.0321C77.7078 79.7929 77.9015 79.599 78.1409 79.599H80.3352C80.94 79.599 81.508 79.3634 81.9352 78.9354C82.362 78.5076 82.5967 77.9389 82.5954 77.3345L82.5688 63.8189C82.5688 60.8828 80.1808 58.4949 77.2455 58.4949C74.3103 58.4949 71.9219 60.8828 71.9219 63.8181L71.9485 76.4687C71.951 77.7029 72.9572 78.7146 74.1914 78.7241L75.6975 78.7355C75.9365 78.7374 76.1289 78.9326 76.1273 79.172C76.1256 79.4099 75.9318 79.6017 75.6941 79.6017H75.6908L74.1846 79.5903C72.4776 79.5772 71.0857 78.1774 71.0823 76.4704L71.0557 63.8189C71.0557 60.4053 73.8323 57.6287 77.2455 57.6287C80.6583 57.6287 83.435 60.4053 83.435 63.8181L83.4616 77.3328C83.4633 78.169 83.1389 78.9555 82.548 79.5472C81.9576 80.1391 81.1713 80.4652 80.3352 80.4652Z" fill="#3F3C57"/>
    <path d="M75.6942 80.7037C76.542 80.7037 77.2293 80.0164 77.2293 79.1686C77.2293 78.3208 76.542 77.6335 75.6942 77.6335C74.8464 77.6335 74.1592 78.3208 74.1592 79.1686C74.1592 80.0164 74.8464 80.7037 75.6942 80.7037Z" fill="#3F3C57"/>
    <path d="M78.1405 81.5672C78.9883 81.5672 79.6756 80.8799 79.6756 80.0321C79.6756 79.1843 78.9883 78.4971 78.1405 78.4971C77.2927 78.4971 76.6055 79.1843 76.6055 80.0321C76.6055 80.8799 77.2927 81.5672 78.1405 81.5672Z" fill="#3F3C57"/>
  </g>
  <defs>
    <clipPath id="clip0_417_5171">
      <rect width="300" height="258.539" fill="white"/>
    </clipPath>
  </defs>
</svg>
